<svg width="114" height="19" viewBox="0 0 114 19" fill="none" xmlns="http://www.w3.org/2000/svg">
<path d="M8.264 1.2C9.752 1.2 11.04 1.448 12.128 1.944C13.232 2.44 14.08 3.144 14.672 4.056C15.264 4.968 15.56 6.048 15.56 7.296C15.56 8.528 15.264 9.608 14.672 10.536C14.08 11.448 13.232 12.152 12.128 12.648C11.04 13.128 9.752 13.368 8.264 13.368H4.88V18H0.992V1.2H8.264ZM8.048 10.2C9.216 10.2 10.104 9.952 10.712 9.456C11.32 8.944 11.624 8.224 11.624 7.296C11.624 6.352 11.32 5.632 10.712 5.136C10.104 4.624 9.216 4.368 8.048 4.368H4.88V10.2H8.048ZM21.6478 6.792C22.0958 6.168 22.6958 5.696 23.4478 5.376C24.2158 5.056 25.0958 4.896 26.0878 4.896V8.352C25.6718 8.32 25.3918 8.304 25.2478 8.304C24.1758 8.304 23.3358 8.608 22.7278 9.216C22.1198 9.808 21.8158 10.704 21.8158 11.904V18H18.0718V5.088H21.6478V6.792ZM40.8448 11.592C40.8448 11.64 40.8208 11.976 40.7728 12.6H31.0048C31.1808 13.4 31.5968 14.032 32.2528 14.496C32.9088 14.96 33.7248 15.192 34.7008 15.192C35.3728 15.192 35.9648 15.096 36.4768 14.904C37.0048 14.696 37.4928 14.376 37.9408 13.944L39.9328 16.104C38.7168 17.496 36.9408 18.192 34.6048 18.192C33.1488 18.192 31.8608 17.912 30.7408 17.352C29.6208 16.776 28.7568 15.984 28.1488 14.976C27.5408 13.968 27.2368 12.824 27.2368 11.544C27.2368 10.28 27.5328 9.144 28.1248 8.136C28.7328 7.112 29.5568 6.32 30.5968 5.76C31.6528 5.184 32.8288 4.896 34.1248 4.896C35.3888 4.896 36.5328 5.168 37.5568 5.712C38.5808 6.256 39.3808 7.04 39.9568 8.064C40.5488 9.072 40.8448 10.248 40.8448 11.592ZM34.1488 7.728C33.3008 7.728 32.5888 7.968 32.0128 8.448C31.4368 8.928 31.0848 9.584 30.9568 10.416H37.3168C37.1888 9.6 36.8368 8.952 36.2608 8.472C35.6848 7.976 34.9808 7.728 34.1488 7.728ZM57.9294 14.472H55.1934V18H51.4014V14.472H42.3534V11.856L50.2734 1.2H54.3534L47.0094 11.304H51.5214V8.16H55.1934V11.304H57.9294V14.472ZM72.9073 11.592C72.9073 11.64 72.8833 11.976 72.8353 12.6H63.0673C63.2433 13.4 63.6593 14.032 64.3153 14.496C64.9713 14.96 65.7873 15.192 66.7633 15.192C67.4353 15.192 68.0273 15.096 68.5393 14.904C69.0673 14.696 69.5553 14.376 70.0033 13.944L71.9953 16.104C70.7793 17.496 69.0033 18.192 66.6673 18.192C65.2113 18.192 63.9233 17.912 62.8033 17.352C61.6833 16.776 60.8193 15.984 60.2113 14.976C59.6033 13.968 59.2993 12.824 59.2993 11.544C59.2993 10.28 59.5953 9.144 60.1873 8.136C60.7953 7.112 61.6193 6.32 62.6593 5.76C63.7153 5.184 64.8913 4.896 66.1873 4.896C67.4513 4.896 68.5953 5.168 69.6193 5.712C70.6433 6.256 71.4433 7.04 72.0193 8.064C72.6113 9.072 72.9073 10.248 72.9073 11.592ZM66.2113 7.728C65.3633 7.728 64.6513 7.968 64.0753 8.448C63.4993 8.928 63.1473 9.584 63.0193 10.416H69.3793C69.2513 9.6 68.8993 8.952 68.3233 8.472C67.7473 7.976 67.0433 7.728 66.2113 7.728ZM80.9439 12.936L79.1439 14.712V18H75.3999V0.191999H79.1439V10.272L84.6159 5.088H89.0799L83.7039 10.56L89.5599 18H85.0239L80.9439 12.936ZM103.329 11.592C103.329 11.64 103.305 11.976 103.257 12.6H93.4891C93.6651 13.4 94.0811 14.032 94.7371 14.496C95.3931 14.96 96.2091 15.192 97.1851 15.192C97.8571 15.192 98.4491 15.096 98.9611 14.904C99.4891 14.696 99.9771 14.376 100.425 13.944L102.417 16.104C101.201 17.496 99.4251 18.192 97.0891 18.192C95.6331 18.192 94.3451 17.912 93.2251 17.352C92.1051 16.776 91.2411 15.984 90.6331 14.976C90.0251 13.968 89.7211 12.824 89.7211 11.544C89.7211 10.28 90.0171 9.144 90.6091 8.136C91.2171 7.112 92.0411 6.32 93.0811 5.76C94.1371 5.184 95.3131 4.896 96.6091 4.896C97.8731 4.896 99.0171 5.168 100.041 5.712C101.065 6.256 101.865 7.04 102.441 8.064C103.033 9.072 103.329 10.248 103.329 11.592ZM96.6331 7.728C95.7851 7.728 95.0731 7.968 94.4971 8.448C93.9211 8.928 93.5691 9.584 93.4411 10.416H99.8011C99.6731 9.6 99.3211 8.952 98.7451 8.472C98.1691 7.976 97.4651 7.728 96.6331 7.728ZM109.398 6.792C109.846 6.168 110.446 5.696 111.198 5.376C111.966 5.056 112.846 4.896 113.838 4.896V8.352C113.422 8.32 113.142 8.304 112.998 8.304C111.926 8.304 111.086 8.608 110.478 9.216C109.87 9.808 109.566 10.704 109.566 11.904V18H105.822V5.088H109.398V6.792Z" fill="black"/>
</svg>
